G04 #@! TF.GenerationSoftware,KiCad,Pcbnew,5.0.2-bee76a0~70~ubuntu18.04.1*
G04 #@! TF.CreationDate,2020-04-02T20:28:14-04:00*
G04 #@! TF.ProjectId,output.panel,6f757470-7574-42e7-9061-6e656c2e6b69,rev?*
G04 #@! TF.SameCoordinates,Original*
G04 #@! TF.FileFunction,Paste,Top*
G04 #@! TF.FilePolarity,Positive*
%FSLAX46Y46*%
G04 Gerber Fmt 4.6, Leading zero omitted, Abs format (unit mm)*
G04 Created by KiCad (PCBNEW 5.0.2-bee76a0~70~ubuntu18.04.1) date Thu 02 Apr 2020 08:28:14 PM EDT*
%MOMM*%
%LPD*%
G01*
G04 APERTURE LIST*
%ADD10R,0.900000X0.800000*%
%ADD11R,0.800000X0.500000*%
%ADD12R,0.800000X0.400000*%
%ADD13R,0.500000X0.350000*%
%ADD14C,0.100000*%
%ADD15C,0.875000*%
G04 APERTURE END LIST*
D10*
G04 #@! TO.C,U1*
X48625000Y-88900000D03*
X46625000Y-89850000D03*
X46625000Y-87950000D03*
G04 #@! TD*
D11*
G04 #@! TO.C,RN2*
X45455000Y-96590000D03*
D12*
X45455000Y-98190000D03*
X45455000Y-97390000D03*
D11*
X45455000Y-98990000D03*
D12*
X47255000Y-97390000D03*
D11*
X47255000Y-96590000D03*
D12*
X47255000Y-98190000D03*
D11*
X47255000Y-98990000D03*
G04 #@! TD*
D13*
G04 #@! TO.C,U2*
X91440000Y-87630000D03*
X89840000Y-89580000D03*
X89840000Y-88930000D03*
X89840000Y-88280000D03*
X91440000Y-89580000D03*
X91440000Y-88930000D03*
X91440000Y-88280000D03*
X89840000Y-87630000D03*
G04 #@! TD*
D11*
G04 #@! TO.C,RN1*
X89535000Y-110655000D03*
D12*
X89535000Y-109055000D03*
X89535000Y-109855000D03*
D11*
X89535000Y-108255000D03*
D12*
X87735000Y-109855000D03*
D11*
X87735000Y-110655000D03*
D12*
X87735000Y-109055000D03*
D11*
X87735000Y-108255000D03*
G04 #@! TD*
D14*
G04 #@! TO.C,R4*
G36*
X97432691Y-112746053D02*
X97453926Y-112749203D01*
X97474750Y-112754419D01*
X97494962Y-112761651D01*
X97514368Y-112770830D01*
X97532781Y-112781866D01*
X97550024Y-112794654D01*
X97565930Y-112809070D01*
X97580346Y-112824976D01*
X97593134Y-112842219D01*
X97604170Y-112860632D01*
X97613349Y-112880038D01*
X97620581Y-112900250D01*
X97625797Y-112921074D01*
X97628947Y-112942309D01*
X97630000Y-112963750D01*
X97630000Y-113401250D01*
X97628947Y-113422691D01*
X97625797Y-113443926D01*
X97620581Y-113464750D01*
X97613349Y-113484962D01*
X97604170Y-113504368D01*
X97593134Y-113522781D01*
X97580346Y-113540024D01*
X97565930Y-113555930D01*
X97550024Y-113570346D01*
X97532781Y-113583134D01*
X97514368Y-113594170D01*
X97494962Y-113603349D01*
X97474750Y-113610581D01*
X97453926Y-113615797D01*
X97432691Y-113618947D01*
X97411250Y-113620000D01*
X96898750Y-113620000D01*
X96877309Y-113618947D01*
X96856074Y-113615797D01*
X96835250Y-113610581D01*
X96815038Y-113603349D01*
X96795632Y-113594170D01*
X96777219Y-113583134D01*
X96759976Y-113570346D01*
X96744070Y-113555930D01*
X96729654Y-113540024D01*
X96716866Y-113522781D01*
X96705830Y-113504368D01*
X96696651Y-113484962D01*
X96689419Y-113464750D01*
X96684203Y-113443926D01*
X96681053Y-113422691D01*
X96680000Y-113401250D01*
X96680000Y-112963750D01*
X96681053Y-112942309D01*
X96684203Y-112921074D01*
X96689419Y-112900250D01*
X96696651Y-112880038D01*
X96705830Y-112860632D01*
X96716866Y-112842219D01*
X96729654Y-112824976D01*
X96744070Y-112809070D01*
X96759976Y-112794654D01*
X96777219Y-112781866D01*
X96795632Y-112770830D01*
X96815038Y-112761651D01*
X96835250Y-112754419D01*
X96856074Y-112749203D01*
X96877309Y-112746053D01*
X96898750Y-112745000D01*
X97411250Y-112745000D01*
X97432691Y-112746053D01*
X97432691Y-112746053D01*
G37*
D15*
X97155000Y-113182500D03*
D14*
G36*
X97432691Y-111171053D02*
X97453926Y-111174203D01*
X97474750Y-111179419D01*
X97494962Y-111186651D01*
X97514368Y-111195830D01*
X97532781Y-111206866D01*
X97550024Y-111219654D01*
X97565930Y-111234070D01*
X97580346Y-111249976D01*
X97593134Y-111267219D01*
X97604170Y-111285632D01*
X97613349Y-111305038D01*
X97620581Y-111325250D01*
X97625797Y-111346074D01*
X97628947Y-111367309D01*
X97630000Y-111388750D01*
X97630000Y-111826250D01*
X97628947Y-111847691D01*
X97625797Y-111868926D01*
X97620581Y-111889750D01*
X97613349Y-111909962D01*
X97604170Y-111929368D01*
X97593134Y-111947781D01*
X97580346Y-111965024D01*
X97565930Y-111980930D01*
X97550024Y-111995346D01*
X97532781Y-112008134D01*
X97514368Y-112019170D01*
X97494962Y-112028349D01*
X97474750Y-112035581D01*
X97453926Y-112040797D01*
X97432691Y-112043947D01*
X97411250Y-112045000D01*
X96898750Y-112045000D01*
X96877309Y-112043947D01*
X96856074Y-112040797D01*
X96835250Y-112035581D01*
X96815038Y-112028349D01*
X96795632Y-112019170D01*
X96777219Y-112008134D01*
X96759976Y-111995346D01*
X96744070Y-111980930D01*
X96729654Y-111965024D01*
X96716866Y-111947781D01*
X96705830Y-111929368D01*
X96696651Y-111909962D01*
X96689419Y-111889750D01*
X96684203Y-111868926D01*
X96681053Y-111847691D01*
X96680000Y-111826250D01*
X96680000Y-111388750D01*
X96681053Y-111367309D01*
X96684203Y-111346074D01*
X96689419Y-111325250D01*
X96696651Y-111305038D01*
X96705830Y-111285632D01*
X96716866Y-111267219D01*
X96729654Y-111249976D01*
X96744070Y-111234070D01*
X96759976Y-111219654D01*
X96777219Y-111206866D01*
X96795632Y-111195830D01*
X96815038Y-111186651D01*
X96835250Y-111179419D01*
X96856074Y-111174203D01*
X96877309Y-111171053D01*
X96898750Y-111170000D01*
X97411250Y-111170000D01*
X97432691Y-111171053D01*
X97432691Y-111171053D01*
G37*
D15*
X97155000Y-111607500D03*
G04 #@! TD*
D14*
G04 #@! TO.C,C3*
G36*
X87907691Y-87193553D02*
X87928926Y-87196703D01*
X87949750Y-87201919D01*
X87969962Y-87209151D01*
X87989368Y-87218330D01*
X88007781Y-87229366D01*
X88025024Y-87242154D01*
X88040930Y-87256570D01*
X88055346Y-87272476D01*
X88068134Y-87289719D01*
X88079170Y-87308132D01*
X88088349Y-87327538D01*
X88095581Y-87347750D01*
X88100797Y-87368574D01*
X88103947Y-87389809D01*
X88105000Y-87411250D01*
X88105000Y-87848750D01*
X88103947Y-87870191D01*
X88100797Y-87891426D01*
X88095581Y-87912250D01*
X88088349Y-87932462D01*
X88079170Y-87951868D01*
X88068134Y-87970281D01*
X88055346Y-87987524D01*
X88040930Y-88003430D01*
X88025024Y-88017846D01*
X88007781Y-88030634D01*
X87989368Y-88041670D01*
X87969962Y-88050849D01*
X87949750Y-88058081D01*
X87928926Y-88063297D01*
X87907691Y-88066447D01*
X87886250Y-88067500D01*
X87373750Y-88067500D01*
X87352309Y-88066447D01*
X87331074Y-88063297D01*
X87310250Y-88058081D01*
X87290038Y-88050849D01*
X87270632Y-88041670D01*
X87252219Y-88030634D01*
X87234976Y-88017846D01*
X87219070Y-88003430D01*
X87204654Y-87987524D01*
X87191866Y-87970281D01*
X87180830Y-87951868D01*
X87171651Y-87932462D01*
X87164419Y-87912250D01*
X87159203Y-87891426D01*
X87156053Y-87870191D01*
X87155000Y-87848750D01*
X87155000Y-87411250D01*
X87156053Y-87389809D01*
X87159203Y-87368574D01*
X87164419Y-87347750D01*
X87171651Y-87327538D01*
X87180830Y-87308132D01*
X87191866Y-87289719D01*
X87204654Y-87272476D01*
X87219070Y-87256570D01*
X87234976Y-87242154D01*
X87252219Y-87229366D01*
X87270632Y-87218330D01*
X87290038Y-87209151D01*
X87310250Y-87201919D01*
X87331074Y-87196703D01*
X87352309Y-87193553D01*
X87373750Y-87192500D01*
X87886250Y-87192500D01*
X87907691Y-87193553D01*
X87907691Y-87193553D01*
G37*
D15*
X87630000Y-87630000D03*
D14*
G36*
X87907691Y-88768553D02*
X87928926Y-88771703D01*
X87949750Y-88776919D01*
X87969962Y-88784151D01*
X87989368Y-88793330D01*
X88007781Y-88804366D01*
X88025024Y-88817154D01*
X88040930Y-88831570D01*
X88055346Y-88847476D01*
X88068134Y-88864719D01*
X88079170Y-88883132D01*
X88088349Y-88902538D01*
X88095581Y-88922750D01*
X88100797Y-88943574D01*
X88103947Y-88964809D01*
X88105000Y-88986250D01*
X88105000Y-89423750D01*
X88103947Y-89445191D01*
X88100797Y-89466426D01*
X88095581Y-89487250D01*
X88088349Y-89507462D01*
X88079170Y-89526868D01*
X88068134Y-89545281D01*
X88055346Y-89562524D01*
X88040930Y-89578430D01*
X88025024Y-89592846D01*
X88007781Y-89605634D01*
X87989368Y-89616670D01*
X87969962Y-89625849D01*
X87949750Y-89633081D01*
X87928926Y-89638297D01*
X87907691Y-89641447D01*
X87886250Y-89642500D01*
X87373750Y-89642500D01*
X87352309Y-89641447D01*
X87331074Y-89638297D01*
X87310250Y-89633081D01*
X87290038Y-89625849D01*
X87270632Y-89616670D01*
X87252219Y-89605634D01*
X87234976Y-89592846D01*
X87219070Y-89578430D01*
X87204654Y-89562524D01*
X87191866Y-89545281D01*
X87180830Y-89526868D01*
X87171651Y-89507462D01*
X87164419Y-89487250D01*
X87159203Y-89466426D01*
X87156053Y-89445191D01*
X87155000Y-89423750D01*
X87155000Y-88986250D01*
X87156053Y-88964809D01*
X87159203Y-88943574D01*
X87164419Y-88922750D01*
X87171651Y-88902538D01*
X87180830Y-88883132D01*
X87191866Y-88864719D01*
X87204654Y-88847476D01*
X87219070Y-88831570D01*
X87234976Y-88817154D01*
X87252219Y-88804366D01*
X87270632Y-88793330D01*
X87290038Y-88784151D01*
X87310250Y-88776919D01*
X87331074Y-88771703D01*
X87352309Y-88768553D01*
X87373750Y-88767500D01*
X87886250Y-88767500D01*
X87907691Y-88768553D01*
X87907691Y-88768553D01*
G37*
D15*
X87630000Y-89205000D03*
G04 #@! TD*
D10*
G04 #@! TO.C,Q2*
X88900000Y-100965000D03*
X90900000Y-100015000D03*
X90900000Y-101915000D03*
G04 #@! TD*
D14*
G04 #@! TO.C,C1*
G36*
X97547691Y-91601053D02*
X97568926Y-91604203D01*
X97589750Y-91609419D01*
X97609962Y-91616651D01*
X97629368Y-91625830D01*
X97647781Y-91636866D01*
X97665024Y-91649654D01*
X97680930Y-91664070D01*
X97695346Y-91679976D01*
X97708134Y-91697219D01*
X97719170Y-91715632D01*
X97728349Y-91735038D01*
X97735581Y-91755250D01*
X97740797Y-91776074D01*
X97743947Y-91797309D01*
X97745000Y-91818750D01*
X97745000Y-92331250D01*
X97743947Y-92352691D01*
X97740797Y-92373926D01*
X97735581Y-92394750D01*
X97728349Y-92414962D01*
X97719170Y-92434368D01*
X97708134Y-92452781D01*
X97695346Y-92470024D01*
X97680930Y-92485930D01*
X97665024Y-92500346D01*
X97647781Y-92513134D01*
X97629368Y-92524170D01*
X97609962Y-92533349D01*
X97589750Y-92540581D01*
X97568926Y-92545797D01*
X97547691Y-92548947D01*
X97526250Y-92550000D01*
X97088750Y-92550000D01*
X97067309Y-92548947D01*
X97046074Y-92545797D01*
X97025250Y-92540581D01*
X97005038Y-92533349D01*
X96985632Y-92524170D01*
X96967219Y-92513134D01*
X96949976Y-92500346D01*
X96934070Y-92485930D01*
X96919654Y-92470024D01*
X96906866Y-92452781D01*
X96895830Y-92434368D01*
X96886651Y-92414962D01*
X96879419Y-92394750D01*
X96874203Y-92373926D01*
X96871053Y-92352691D01*
X96870000Y-92331250D01*
X96870000Y-91818750D01*
X96871053Y-91797309D01*
X96874203Y-91776074D01*
X96879419Y-91755250D01*
X96886651Y-91735038D01*
X96895830Y-91715632D01*
X96906866Y-91697219D01*
X96919654Y-91679976D01*
X96934070Y-91664070D01*
X96949976Y-91649654D01*
X96967219Y-91636866D01*
X96985632Y-91625830D01*
X97005038Y-91616651D01*
X97025250Y-91609419D01*
X97046074Y-91604203D01*
X97067309Y-91601053D01*
X97088750Y-91600000D01*
X97526250Y-91600000D01*
X97547691Y-91601053D01*
X97547691Y-91601053D01*
G37*
D15*
X97307500Y-92075000D03*
D14*
G36*
X95972691Y-91601053D02*
X95993926Y-91604203D01*
X96014750Y-91609419D01*
X96034962Y-91616651D01*
X96054368Y-91625830D01*
X96072781Y-91636866D01*
X96090024Y-91649654D01*
X96105930Y-91664070D01*
X96120346Y-91679976D01*
X96133134Y-91697219D01*
X96144170Y-91715632D01*
X96153349Y-91735038D01*
X96160581Y-91755250D01*
X96165797Y-91776074D01*
X96168947Y-91797309D01*
X96170000Y-91818750D01*
X96170000Y-92331250D01*
X96168947Y-92352691D01*
X96165797Y-92373926D01*
X96160581Y-92394750D01*
X96153349Y-92414962D01*
X96144170Y-92434368D01*
X96133134Y-92452781D01*
X96120346Y-92470024D01*
X96105930Y-92485930D01*
X96090024Y-92500346D01*
X96072781Y-92513134D01*
X96054368Y-92524170D01*
X96034962Y-92533349D01*
X96014750Y-92540581D01*
X95993926Y-92545797D01*
X95972691Y-92548947D01*
X95951250Y-92550000D01*
X95513750Y-92550000D01*
X95492309Y-92548947D01*
X95471074Y-92545797D01*
X95450250Y-92540581D01*
X95430038Y-92533349D01*
X95410632Y-92524170D01*
X95392219Y-92513134D01*
X95374976Y-92500346D01*
X95359070Y-92485930D01*
X95344654Y-92470024D01*
X95331866Y-92452781D01*
X95320830Y-92434368D01*
X95311651Y-92414962D01*
X95304419Y-92394750D01*
X95299203Y-92373926D01*
X95296053Y-92352691D01*
X95295000Y-92331250D01*
X95295000Y-91818750D01*
X95296053Y-91797309D01*
X95299203Y-91776074D01*
X95304419Y-91755250D01*
X95311651Y-91735038D01*
X95320830Y-91715632D01*
X95331866Y-91697219D01*
X95344654Y-91679976D01*
X95359070Y-91664070D01*
X95374976Y-91649654D01*
X95392219Y-91636866D01*
X95410632Y-91625830D01*
X95430038Y-91616651D01*
X95450250Y-91609419D01*
X95471074Y-91604203D01*
X95492309Y-91601053D01*
X95513750Y-91600000D01*
X95951250Y-91600000D01*
X95972691Y-91601053D01*
X95972691Y-91601053D01*
G37*
D15*
X95732500Y-92075000D03*
G04 #@! TD*
D14*
G04 #@! TO.C,C2*
G36*
X95972691Y-85251053D02*
X95993926Y-85254203D01*
X96014750Y-85259419D01*
X96034962Y-85266651D01*
X96054368Y-85275830D01*
X96072781Y-85286866D01*
X96090024Y-85299654D01*
X96105930Y-85314070D01*
X96120346Y-85329976D01*
X96133134Y-85347219D01*
X96144170Y-85365632D01*
X96153349Y-85385038D01*
X96160581Y-85405250D01*
X96165797Y-85426074D01*
X96168947Y-85447309D01*
X96170000Y-85468750D01*
X96170000Y-85981250D01*
X96168947Y-86002691D01*
X96165797Y-86023926D01*
X96160581Y-86044750D01*
X96153349Y-86064962D01*
X96144170Y-86084368D01*
X96133134Y-86102781D01*
X96120346Y-86120024D01*
X96105930Y-86135930D01*
X96090024Y-86150346D01*
X96072781Y-86163134D01*
X96054368Y-86174170D01*
X96034962Y-86183349D01*
X96014750Y-86190581D01*
X95993926Y-86195797D01*
X95972691Y-86198947D01*
X95951250Y-86200000D01*
X95513750Y-86200000D01*
X95492309Y-86198947D01*
X95471074Y-86195797D01*
X95450250Y-86190581D01*
X95430038Y-86183349D01*
X95410632Y-86174170D01*
X95392219Y-86163134D01*
X95374976Y-86150346D01*
X95359070Y-86135930D01*
X95344654Y-86120024D01*
X95331866Y-86102781D01*
X95320830Y-86084368D01*
X95311651Y-86064962D01*
X95304419Y-86044750D01*
X95299203Y-86023926D01*
X95296053Y-86002691D01*
X95295000Y-85981250D01*
X95295000Y-85468750D01*
X95296053Y-85447309D01*
X95299203Y-85426074D01*
X95304419Y-85405250D01*
X95311651Y-85385038D01*
X95320830Y-85365632D01*
X95331866Y-85347219D01*
X95344654Y-85329976D01*
X95359070Y-85314070D01*
X95374976Y-85299654D01*
X95392219Y-85286866D01*
X95410632Y-85275830D01*
X95430038Y-85266651D01*
X95450250Y-85259419D01*
X95471074Y-85254203D01*
X95492309Y-85251053D01*
X95513750Y-85250000D01*
X95951250Y-85250000D01*
X95972691Y-85251053D01*
X95972691Y-85251053D01*
G37*
D15*
X95732500Y-85725000D03*
D14*
G36*
X97547691Y-85251053D02*
X97568926Y-85254203D01*
X97589750Y-85259419D01*
X97609962Y-85266651D01*
X97629368Y-85275830D01*
X97647781Y-85286866D01*
X97665024Y-85299654D01*
X97680930Y-85314070D01*
X97695346Y-85329976D01*
X97708134Y-85347219D01*
X97719170Y-85365632D01*
X97728349Y-85385038D01*
X97735581Y-85405250D01*
X97740797Y-85426074D01*
X97743947Y-85447309D01*
X97745000Y-85468750D01*
X97745000Y-85981250D01*
X97743947Y-86002691D01*
X97740797Y-86023926D01*
X97735581Y-86044750D01*
X97728349Y-86064962D01*
X97719170Y-86084368D01*
X97708134Y-86102781D01*
X97695346Y-86120024D01*
X97680930Y-86135930D01*
X97665024Y-86150346D01*
X97647781Y-86163134D01*
X97629368Y-86174170D01*
X97609962Y-86183349D01*
X97589750Y-86190581D01*
X97568926Y-86195797D01*
X97547691Y-86198947D01*
X97526250Y-86200000D01*
X97088750Y-86200000D01*
X97067309Y-86198947D01*
X97046074Y-86195797D01*
X97025250Y-86190581D01*
X97005038Y-86183349D01*
X96985632Y-86174170D01*
X96967219Y-86163134D01*
X96949976Y-86150346D01*
X96934070Y-86135930D01*
X96919654Y-86120024D01*
X96906866Y-86102781D01*
X96895830Y-86084368D01*
X96886651Y-86064962D01*
X96879419Y-86044750D01*
X96874203Y-86023926D01*
X96871053Y-86002691D01*
X96870000Y-85981250D01*
X96870000Y-85468750D01*
X96871053Y-85447309D01*
X96874203Y-85426074D01*
X96879419Y-85405250D01*
X96886651Y-85385038D01*
X96895830Y-85365632D01*
X96906866Y-85347219D01*
X96919654Y-85329976D01*
X96934070Y-85314070D01*
X96949976Y-85299654D01*
X96967219Y-85286866D01*
X96985632Y-85275830D01*
X97005038Y-85266651D01*
X97025250Y-85259419D01*
X97046074Y-85254203D01*
X97067309Y-85251053D01*
X97088750Y-85250000D01*
X97526250Y-85250000D01*
X97547691Y-85251053D01*
X97547691Y-85251053D01*
G37*
D15*
X97307500Y-85725000D03*
G04 #@! TD*
D10*
G04 #@! TO.C,Q1*
X40005000Y-95250000D03*
X42005000Y-94300000D03*
X42005000Y-96200000D03*
G04 #@! TD*
D13*
G04 #@! TO.C,U2*
X40945000Y-87630000D03*
X42545000Y-88280000D03*
X42545000Y-88930000D03*
X42545000Y-89580000D03*
X40945000Y-88280000D03*
X40945000Y-88930000D03*
X40945000Y-89580000D03*
X42545000Y-87630000D03*
G04 #@! TD*
D14*
G04 #@! TO.C,C1*
G36*
X47077691Y-91601053D02*
X47098926Y-91604203D01*
X47119750Y-91609419D01*
X47139962Y-91616651D01*
X47159368Y-91625830D01*
X47177781Y-91636866D01*
X47195024Y-91649654D01*
X47210930Y-91664070D01*
X47225346Y-91679976D01*
X47238134Y-91697219D01*
X47249170Y-91715632D01*
X47258349Y-91735038D01*
X47265581Y-91755250D01*
X47270797Y-91776074D01*
X47273947Y-91797309D01*
X47275000Y-91818750D01*
X47275000Y-92331250D01*
X47273947Y-92352691D01*
X47270797Y-92373926D01*
X47265581Y-92394750D01*
X47258349Y-92414962D01*
X47249170Y-92434368D01*
X47238134Y-92452781D01*
X47225346Y-92470024D01*
X47210930Y-92485930D01*
X47195024Y-92500346D01*
X47177781Y-92513134D01*
X47159368Y-92524170D01*
X47139962Y-92533349D01*
X47119750Y-92540581D01*
X47098926Y-92545797D01*
X47077691Y-92548947D01*
X47056250Y-92550000D01*
X46618750Y-92550000D01*
X46597309Y-92548947D01*
X46576074Y-92545797D01*
X46555250Y-92540581D01*
X46535038Y-92533349D01*
X46515632Y-92524170D01*
X46497219Y-92513134D01*
X46479976Y-92500346D01*
X46464070Y-92485930D01*
X46449654Y-92470024D01*
X46436866Y-92452781D01*
X46425830Y-92434368D01*
X46416651Y-92414962D01*
X46409419Y-92394750D01*
X46404203Y-92373926D01*
X46401053Y-92352691D01*
X46400000Y-92331250D01*
X46400000Y-91818750D01*
X46401053Y-91797309D01*
X46404203Y-91776074D01*
X46409419Y-91755250D01*
X46416651Y-91735038D01*
X46425830Y-91715632D01*
X46436866Y-91697219D01*
X46449654Y-91679976D01*
X46464070Y-91664070D01*
X46479976Y-91649654D01*
X46497219Y-91636866D01*
X46515632Y-91625830D01*
X46535038Y-91616651D01*
X46555250Y-91609419D01*
X46576074Y-91604203D01*
X46597309Y-91601053D01*
X46618750Y-91600000D01*
X47056250Y-91600000D01*
X47077691Y-91601053D01*
X47077691Y-91601053D01*
G37*
D15*
X46837500Y-92075000D03*
D14*
G36*
X48652691Y-91601053D02*
X48673926Y-91604203D01*
X48694750Y-91609419D01*
X48714962Y-91616651D01*
X48734368Y-91625830D01*
X48752781Y-91636866D01*
X48770024Y-91649654D01*
X48785930Y-91664070D01*
X48800346Y-91679976D01*
X48813134Y-91697219D01*
X48824170Y-91715632D01*
X48833349Y-91735038D01*
X48840581Y-91755250D01*
X48845797Y-91776074D01*
X48848947Y-91797309D01*
X48850000Y-91818750D01*
X48850000Y-92331250D01*
X48848947Y-92352691D01*
X48845797Y-92373926D01*
X48840581Y-92394750D01*
X48833349Y-92414962D01*
X48824170Y-92434368D01*
X48813134Y-92452781D01*
X48800346Y-92470024D01*
X48785930Y-92485930D01*
X48770024Y-92500346D01*
X48752781Y-92513134D01*
X48734368Y-92524170D01*
X48714962Y-92533349D01*
X48694750Y-92540581D01*
X48673926Y-92545797D01*
X48652691Y-92548947D01*
X48631250Y-92550000D01*
X48193750Y-92550000D01*
X48172309Y-92548947D01*
X48151074Y-92545797D01*
X48130250Y-92540581D01*
X48110038Y-92533349D01*
X48090632Y-92524170D01*
X48072219Y-92513134D01*
X48054976Y-92500346D01*
X48039070Y-92485930D01*
X48024654Y-92470024D01*
X48011866Y-92452781D01*
X48000830Y-92434368D01*
X47991651Y-92414962D01*
X47984419Y-92394750D01*
X47979203Y-92373926D01*
X47976053Y-92352691D01*
X47975000Y-92331250D01*
X47975000Y-91818750D01*
X47976053Y-91797309D01*
X47979203Y-91776074D01*
X47984419Y-91755250D01*
X47991651Y-91735038D01*
X48000830Y-91715632D01*
X48011866Y-91697219D01*
X48024654Y-91679976D01*
X48039070Y-91664070D01*
X48054976Y-91649654D01*
X48072219Y-91636866D01*
X48090632Y-91625830D01*
X48110038Y-91616651D01*
X48130250Y-91609419D01*
X48151074Y-91604203D01*
X48172309Y-91601053D01*
X48193750Y-91600000D01*
X48631250Y-91600000D01*
X48652691Y-91601053D01*
X48652691Y-91601053D01*
G37*
D15*
X48412500Y-92075000D03*
G04 #@! TD*
D14*
G04 #@! TO.C,C2*
G36*
X48652691Y-85251053D02*
X48673926Y-85254203D01*
X48694750Y-85259419D01*
X48714962Y-85266651D01*
X48734368Y-85275830D01*
X48752781Y-85286866D01*
X48770024Y-85299654D01*
X48785930Y-85314070D01*
X48800346Y-85329976D01*
X48813134Y-85347219D01*
X48824170Y-85365632D01*
X48833349Y-85385038D01*
X48840581Y-85405250D01*
X48845797Y-85426074D01*
X48848947Y-85447309D01*
X48850000Y-85468750D01*
X48850000Y-85981250D01*
X48848947Y-86002691D01*
X48845797Y-86023926D01*
X48840581Y-86044750D01*
X48833349Y-86064962D01*
X48824170Y-86084368D01*
X48813134Y-86102781D01*
X48800346Y-86120024D01*
X48785930Y-86135930D01*
X48770024Y-86150346D01*
X48752781Y-86163134D01*
X48734368Y-86174170D01*
X48714962Y-86183349D01*
X48694750Y-86190581D01*
X48673926Y-86195797D01*
X48652691Y-86198947D01*
X48631250Y-86200000D01*
X48193750Y-86200000D01*
X48172309Y-86198947D01*
X48151074Y-86195797D01*
X48130250Y-86190581D01*
X48110038Y-86183349D01*
X48090632Y-86174170D01*
X48072219Y-86163134D01*
X48054976Y-86150346D01*
X48039070Y-86135930D01*
X48024654Y-86120024D01*
X48011866Y-86102781D01*
X48000830Y-86084368D01*
X47991651Y-86064962D01*
X47984419Y-86044750D01*
X47979203Y-86023926D01*
X47976053Y-86002691D01*
X47975000Y-85981250D01*
X47975000Y-85468750D01*
X47976053Y-85447309D01*
X47979203Y-85426074D01*
X47984419Y-85405250D01*
X47991651Y-85385038D01*
X48000830Y-85365632D01*
X48011866Y-85347219D01*
X48024654Y-85329976D01*
X48039070Y-85314070D01*
X48054976Y-85299654D01*
X48072219Y-85286866D01*
X48090632Y-85275830D01*
X48110038Y-85266651D01*
X48130250Y-85259419D01*
X48151074Y-85254203D01*
X48172309Y-85251053D01*
X48193750Y-85250000D01*
X48631250Y-85250000D01*
X48652691Y-85251053D01*
X48652691Y-85251053D01*
G37*
D15*
X48412500Y-85725000D03*
D14*
G36*
X47077691Y-85251053D02*
X47098926Y-85254203D01*
X47119750Y-85259419D01*
X47139962Y-85266651D01*
X47159368Y-85275830D01*
X47177781Y-85286866D01*
X47195024Y-85299654D01*
X47210930Y-85314070D01*
X47225346Y-85329976D01*
X47238134Y-85347219D01*
X47249170Y-85365632D01*
X47258349Y-85385038D01*
X47265581Y-85405250D01*
X47270797Y-85426074D01*
X47273947Y-85447309D01*
X47275000Y-85468750D01*
X47275000Y-85981250D01*
X47273947Y-86002691D01*
X47270797Y-86023926D01*
X47265581Y-86044750D01*
X47258349Y-86064962D01*
X47249170Y-86084368D01*
X47238134Y-86102781D01*
X47225346Y-86120024D01*
X47210930Y-86135930D01*
X47195024Y-86150346D01*
X47177781Y-86163134D01*
X47159368Y-86174170D01*
X47139962Y-86183349D01*
X47119750Y-86190581D01*
X47098926Y-86195797D01*
X47077691Y-86198947D01*
X47056250Y-86200000D01*
X46618750Y-86200000D01*
X46597309Y-86198947D01*
X46576074Y-86195797D01*
X46555250Y-86190581D01*
X46535038Y-86183349D01*
X46515632Y-86174170D01*
X46497219Y-86163134D01*
X46479976Y-86150346D01*
X46464070Y-86135930D01*
X46449654Y-86120024D01*
X46436866Y-86102781D01*
X46425830Y-86084368D01*
X46416651Y-86064962D01*
X46409419Y-86044750D01*
X46404203Y-86023926D01*
X46401053Y-86002691D01*
X46400000Y-85981250D01*
X46400000Y-85468750D01*
X46401053Y-85447309D01*
X46404203Y-85426074D01*
X46409419Y-85405250D01*
X46416651Y-85385038D01*
X46425830Y-85365632D01*
X46436866Y-85347219D01*
X46449654Y-85329976D01*
X46464070Y-85314070D01*
X46479976Y-85299654D01*
X46497219Y-85286866D01*
X46515632Y-85275830D01*
X46535038Y-85266651D01*
X46555250Y-85259419D01*
X46576074Y-85254203D01*
X46597309Y-85251053D01*
X46618750Y-85250000D01*
X47056250Y-85250000D01*
X47077691Y-85251053D01*
X47077691Y-85251053D01*
G37*
D15*
X46837500Y-85725000D03*
G04 #@! TD*
D10*
G04 #@! TO.C,Q1*
X90900000Y-96200000D03*
X90900000Y-94300000D03*
X88900000Y-95250000D03*
G04 #@! TD*
D11*
G04 #@! TO.C,RN1*
X38840000Y-108255000D03*
D12*
X38840000Y-109055000D03*
D11*
X38840000Y-110655000D03*
D12*
X38840000Y-109855000D03*
D11*
X40640000Y-108255000D03*
D12*
X40640000Y-109855000D03*
X40640000Y-109055000D03*
D11*
X40640000Y-110655000D03*
G04 #@! TD*
D14*
G04 #@! TO.C,C3*
G36*
X39012691Y-88768553D02*
X39033926Y-88771703D01*
X39054750Y-88776919D01*
X39074962Y-88784151D01*
X39094368Y-88793330D01*
X39112781Y-88804366D01*
X39130024Y-88817154D01*
X39145930Y-88831570D01*
X39160346Y-88847476D01*
X39173134Y-88864719D01*
X39184170Y-88883132D01*
X39193349Y-88902538D01*
X39200581Y-88922750D01*
X39205797Y-88943574D01*
X39208947Y-88964809D01*
X39210000Y-88986250D01*
X39210000Y-89423750D01*
X39208947Y-89445191D01*
X39205797Y-89466426D01*
X39200581Y-89487250D01*
X39193349Y-89507462D01*
X39184170Y-89526868D01*
X39173134Y-89545281D01*
X39160346Y-89562524D01*
X39145930Y-89578430D01*
X39130024Y-89592846D01*
X39112781Y-89605634D01*
X39094368Y-89616670D01*
X39074962Y-89625849D01*
X39054750Y-89633081D01*
X39033926Y-89638297D01*
X39012691Y-89641447D01*
X38991250Y-89642500D01*
X38478750Y-89642500D01*
X38457309Y-89641447D01*
X38436074Y-89638297D01*
X38415250Y-89633081D01*
X38395038Y-89625849D01*
X38375632Y-89616670D01*
X38357219Y-89605634D01*
X38339976Y-89592846D01*
X38324070Y-89578430D01*
X38309654Y-89562524D01*
X38296866Y-89545281D01*
X38285830Y-89526868D01*
X38276651Y-89507462D01*
X38269419Y-89487250D01*
X38264203Y-89466426D01*
X38261053Y-89445191D01*
X38260000Y-89423750D01*
X38260000Y-88986250D01*
X38261053Y-88964809D01*
X38264203Y-88943574D01*
X38269419Y-88922750D01*
X38276651Y-88902538D01*
X38285830Y-88883132D01*
X38296866Y-88864719D01*
X38309654Y-88847476D01*
X38324070Y-88831570D01*
X38339976Y-88817154D01*
X38357219Y-88804366D01*
X38375632Y-88793330D01*
X38395038Y-88784151D01*
X38415250Y-88776919D01*
X38436074Y-88771703D01*
X38457309Y-88768553D01*
X38478750Y-88767500D01*
X38991250Y-88767500D01*
X39012691Y-88768553D01*
X39012691Y-88768553D01*
G37*
D15*
X38735000Y-89205000D03*
D14*
G36*
X39012691Y-87193553D02*
X39033926Y-87196703D01*
X39054750Y-87201919D01*
X39074962Y-87209151D01*
X39094368Y-87218330D01*
X39112781Y-87229366D01*
X39130024Y-87242154D01*
X39145930Y-87256570D01*
X39160346Y-87272476D01*
X39173134Y-87289719D01*
X39184170Y-87308132D01*
X39193349Y-87327538D01*
X39200581Y-87347750D01*
X39205797Y-87368574D01*
X39208947Y-87389809D01*
X39210000Y-87411250D01*
X39210000Y-87848750D01*
X39208947Y-87870191D01*
X39205797Y-87891426D01*
X39200581Y-87912250D01*
X39193349Y-87932462D01*
X39184170Y-87951868D01*
X39173134Y-87970281D01*
X39160346Y-87987524D01*
X39145930Y-88003430D01*
X39130024Y-88017846D01*
X39112781Y-88030634D01*
X39094368Y-88041670D01*
X39074962Y-88050849D01*
X39054750Y-88058081D01*
X39033926Y-88063297D01*
X39012691Y-88066447D01*
X38991250Y-88067500D01*
X38478750Y-88067500D01*
X38457309Y-88066447D01*
X38436074Y-88063297D01*
X38415250Y-88058081D01*
X38395038Y-88050849D01*
X38375632Y-88041670D01*
X38357219Y-88030634D01*
X38339976Y-88017846D01*
X38324070Y-88003430D01*
X38309654Y-87987524D01*
X38296866Y-87970281D01*
X38285830Y-87951868D01*
X38276651Y-87932462D01*
X38269419Y-87912250D01*
X38264203Y-87891426D01*
X38261053Y-87870191D01*
X38260000Y-87848750D01*
X38260000Y-87411250D01*
X38261053Y-87389809D01*
X38264203Y-87368574D01*
X38269419Y-87347750D01*
X38276651Y-87327538D01*
X38285830Y-87308132D01*
X38296866Y-87289719D01*
X38309654Y-87272476D01*
X38324070Y-87256570D01*
X38339976Y-87242154D01*
X38357219Y-87229366D01*
X38375632Y-87218330D01*
X38395038Y-87209151D01*
X38415250Y-87201919D01*
X38436074Y-87196703D01*
X38457309Y-87193553D01*
X38478750Y-87192500D01*
X38991250Y-87192500D01*
X39012691Y-87193553D01*
X39012691Y-87193553D01*
G37*
D15*
X38735000Y-87630000D03*
G04 #@! TD*
D10*
G04 #@! TO.C,U1*
X95520000Y-87950000D03*
X95520000Y-89850000D03*
X97520000Y-88900000D03*
G04 #@! TD*
D11*
G04 #@! TO.C,RN2*
X96150000Y-98990000D03*
D12*
X96150000Y-98190000D03*
D11*
X96150000Y-96590000D03*
D12*
X96150000Y-97390000D03*
D11*
X94350000Y-98990000D03*
D12*
X94350000Y-97390000D03*
X94350000Y-98190000D03*
D11*
X94350000Y-96590000D03*
G04 #@! TD*
D14*
G04 #@! TO.C,R4*
G36*
X48537691Y-111171053D02*
X48558926Y-111174203D01*
X48579750Y-111179419D01*
X48599962Y-111186651D01*
X48619368Y-111195830D01*
X48637781Y-111206866D01*
X48655024Y-111219654D01*
X48670930Y-111234070D01*
X48685346Y-111249976D01*
X48698134Y-111267219D01*
X48709170Y-111285632D01*
X48718349Y-111305038D01*
X48725581Y-111325250D01*
X48730797Y-111346074D01*
X48733947Y-111367309D01*
X48735000Y-111388750D01*
X48735000Y-111826250D01*
X48733947Y-111847691D01*
X48730797Y-111868926D01*
X48725581Y-111889750D01*
X48718349Y-111909962D01*
X48709170Y-111929368D01*
X48698134Y-111947781D01*
X48685346Y-111965024D01*
X48670930Y-111980930D01*
X48655024Y-111995346D01*
X48637781Y-112008134D01*
X48619368Y-112019170D01*
X48599962Y-112028349D01*
X48579750Y-112035581D01*
X48558926Y-112040797D01*
X48537691Y-112043947D01*
X48516250Y-112045000D01*
X48003750Y-112045000D01*
X47982309Y-112043947D01*
X47961074Y-112040797D01*
X47940250Y-112035581D01*
X47920038Y-112028349D01*
X47900632Y-112019170D01*
X47882219Y-112008134D01*
X47864976Y-111995346D01*
X47849070Y-111980930D01*
X47834654Y-111965024D01*
X47821866Y-111947781D01*
X47810830Y-111929368D01*
X47801651Y-111909962D01*
X47794419Y-111889750D01*
X47789203Y-111868926D01*
X47786053Y-111847691D01*
X47785000Y-111826250D01*
X47785000Y-111388750D01*
X47786053Y-111367309D01*
X47789203Y-111346074D01*
X47794419Y-111325250D01*
X47801651Y-111305038D01*
X47810830Y-111285632D01*
X47821866Y-111267219D01*
X47834654Y-111249976D01*
X47849070Y-111234070D01*
X47864976Y-111219654D01*
X47882219Y-111206866D01*
X47900632Y-111195830D01*
X47920038Y-111186651D01*
X47940250Y-111179419D01*
X47961074Y-111174203D01*
X47982309Y-111171053D01*
X48003750Y-111170000D01*
X48516250Y-111170000D01*
X48537691Y-111171053D01*
X48537691Y-111171053D01*
G37*
D15*
X48260000Y-111607500D03*
D14*
G36*
X48537691Y-112746053D02*
X48558926Y-112749203D01*
X48579750Y-112754419D01*
X48599962Y-112761651D01*
X48619368Y-112770830D01*
X48637781Y-112781866D01*
X48655024Y-112794654D01*
X48670930Y-112809070D01*
X48685346Y-112824976D01*
X48698134Y-112842219D01*
X48709170Y-112860632D01*
X48718349Y-112880038D01*
X48725581Y-112900250D01*
X48730797Y-112921074D01*
X48733947Y-112942309D01*
X48735000Y-112963750D01*
X48735000Y-113401250D01*
X48733947Y-113422691D01*
X48730797Y-113443926D01*
X48725581Y-113464750D01*
X48718349Y-113484962D01*
X48709170Y-113504368D01*
X48698134Y-113522781D01*
X48685346Y-113540024D01*
X48670930Y-113555930D01*
X48655024Y-113570346D01*
X48637781Y-113583134D01*
X48619368Y-113594170D01*
X48599962Y-113603349D01*
X48579750Y-113610581D01*
X48558926Y-113615797D01*
X48537691Y-113618947D01*
X48516250Y-113620000D01*
X48003750Y-113620000D01*
X47982309Y-113618947D01*
X47961074Y-113615797D01*
X47940250Y-113610581D01*
X47920038Y-113603349D01*
X47900632Y-113594170D01*
X47882219Y-113583134D01*
X47864976Y-113570346D01*
X47849070Y-113555930D01*
X47834654Y-113540024D01*
X47821866Y-113522781D01*
X47810830Y-113504368D01*
X47801651Y-113484962D01*
X47794419Y-113464750D01*
X47789203Y-113443926D01*
X47786053Y-113422691D01*
X47785000Y-113401250D01*
X47785000Y-112963750D01*
X47786053Y-112942309D01*
X47789203Y-112921074D01*
X47794419Y-112900250D01*
X47801651Y-112880038D01*
X47810830Y-112860632D01*
X47821866Y-112842219D01*
X47834654Y-112824976D01*
X47849070Y-112809070D01*
X47864976Y-112794654D01*
X47882219Y-112781866D01*
X47900632Y-112770830D01*
X47920038Y-112761651D01*
X47940250Y-112754419D01*
X47961074Y-112749203D01*
X47982309Y-112746053D01*
X48003750Y-112745000D01*
X48516250Y-112745000D01*
X48537691Y-112746053D01*
X48537691Y-112746053D01*
G37*
D15*
X48260000Y-113182500D03*
G04 #@! TD*
D10*
G04 #@! TO.C,Q2*
X42005000Y-101915000D03*
X42005000Y-100015000D03*
X40005000Y-100965000D03*
G04 #@! TD*
G04 #@! TO.C,U1*
X97520000Y-44450000D03*
X95520000Y-45400000D03*
X95520000Y-43500000D03*
G04 #@! TD*
D11*
G04 #@! TO.C,RN2*
X94350000Y-52140000D03*
D12*
X94350000Y-53740000D03*
X94350000Y-52940000D03*
D11*
X94350000Y-54540000D03*
D12*
X96150000Y-52940000D03*
D11*
X96150000Y-52140000D03*
D12*
X96150000Y-53740000D03*
D11*
X96150000Y-54540000D03*
G04 #@! TD*
D10*
G04 #@! TO.C,Q1*
X88900000Y-50800000D03*
X90900000Y-49850000D03*
X90900000Y-51750000D03*
G04 #@! TD*
D13*
G04 #@! TO.C,U2*
X89840000Y-43180000D03*
X91440000Y-43830000D03*
X91440000Y-44480000D03*
X91440000Y-45130000D03*
X89840000Y-43830000D03*
X89840000Y-44480000D03*
X89840000Y-45130000D03*
X91440000Y-43180000D03*
G04 #@! TD*
D14*
G04 #@! TO.C,C1*
G36*
X95972691Y-47151053D02*
X95993926Y-47154203D01*
X96014750Y-47159419D01*
X96034962Y-47166651D01*
X96054368Y-47175830D01*
X96072781Y-47186866D01*
X96090024Y-47199654D01*
X96105930Y-47214070D01*
X96120346Y-47229976D01*
X96133134Y-47247219D01*
X96144170Y-47265632D01*
X96153349Y-47285038D01*
X96160581Y-47305250D01*
X96165797Y-47326074D01*
X96168947Y-47347309D01*
X96170000Y-47368750D01*
X96170000Y-47881250D01*
X96168947Y-47902691D01*
X96165797Y-47923926D01*
X96160581Y-47944750D01*
X96153349Y-47964962D01*
X96144170Y-47984368D01*
X96133134Y-48002781D01*
X96120346Y-48020024D01*
X96105930Y-48035930D01*
X96090024Y-48050346D01*
X96072781Y-48063134D01*
X96054368Y-48074170D01*
X96034962Y-48083349D01*
X96014750Y-48090581D01*
X95993926Y-48095797D01*
X95972691Y-48098947D01*
X95951250Y-48100000D01*
X95513750Y-48100000D01*
X95492309Y-48098947D01*
X95471074Y-48095797D01*
X95450250Y-48090581D01*
X95430038Y-48083349D01*
X95410632Y-48074170D01*
X95392219Y-48063134D01*
X95374976Y-48050346D01*
X95359070Y-48035930D01*
X95344654Y-48020024D01*
X95331866Y-48002781D01*
X95320830Y-47984368D01*
X95311651Y-47964962D01*
X95304419Y-47944750D01*
X95299203Y-47923926D01*
X95296053Y-47902691D01*
X95295000Y-47881250D01*
X95295000Y-47368750D01*
X95296053Y-47347309D01*
X95299203Y-47326074D01*
X95304419Y-47305250D01*
X95311651Y-47285038D01*
X95320830Y-47265632D01*
X95331866Y-47247219D01*
X95344654Y-47229976D01*
X95359070Y-47214070D01*
X95374976Y-47199654D01*
X95392219Y-47186866D01*
X95410632Y-47175830D01*
X95430038Y-47166651D01*
X95450250Y-47159419D01*
X95471074Y-47154203D01*
X95492309Y-47151053D01*
X95513750Y-47150000D01*
X95951250Y-47150000D01*
X95972691Y-47151053D01*
X95972691Y-47151053D01*
G37*
D15*
X95732500Y-47625000D03*
D14*
G36*
X97547691Y-47151053D02*
X97568926Y-47154203D01*
X97589750Y-47159419D01*
X97609962Y-47166651D01*
X97629368Y-47175830D01*
X97647781Y-47186866D01*
X97665024Y-47199654D01*
X97680930Y-47214070D01*
X97695346Y-47229976D01*
X97708134Y-47247219D01*
X97719170Y-47265632D01*
X97728349Y-47285038D01*
X97735581Y-47305250D01*
X97740797Y-47326074D01*
X97743947Y-47347309D01*
X97745000Y-47368750D01*
X97745000Y-47881250D01*
X97743947Y-47902691D01*
X97740797Y-47923926D01*
X97735581Y-47944750D01*
X97728349Y-47964962D01*
X97719170Y-47984368D01*
X97708134Y-48002781D01*
X97695346Y-48020024D01*
X97680930Y-48035930D01*
X97665024Y-48050346D01*
X97647781Y-48063134D01*
X97629368Y-48074170D01*
X97609962Y-48083349D01*
X97589750Y-48090581D01*
X97568926Y-48095797D01*
X97547691Y-48098947D01*
X97526250Y-48100000D01*
X97088750Y-48100000D01*
X97067309Y-48098947D01*
X97046074Y-48095797D01*
X97025250Y-48090581D01*
X97005038Y-48083349D01*
X96985632Y-48074170D01*
X96967219Y-48063134D01*
X96949976Y-48050346D01*
X96934070Y-48035930D01*
X96919654Y-48020024D01*
X96906866Y-48002781D01*
X96895830Y-47984368D01*
X96886651Y-47964962D01*
X96879419Y-47944750D01*
X96874203Y-47923926D01*
X96871053Y-47902691D01*
X96870000Y-47881250D01*
X96870000Y-47368750D01*
X96871053Y-47347309D01*
X96874203Y-47326074D01*
X96879419Y-47305250D01*
X96886651Y-47285038D01*
X96895830Y-47265632D01*
X96906866Y-47247219D01*
X96919654Y-47229976D01*
X96934070Y-47214070D01*
X96949976Y-47199654D01*
X96967219Y-47186866D01*
X96985632Y-47175830D01*
X97005038Y-47166651D01*
X97025250Y-47159419D01*
X97046074Y-47154203D01*
X97067309Y-47151053D01*
X97088750Y-47150000D01*
X97526250Y-47150000D01*
X97547691Y-47151053D01*
X97547691Y-47151053D01*
G37*
D15*
X97307500Y-47625000D03*
G04 #@! TD*
D14*
G04 #@! TO.C,C2*
G36*
X97547691Y-40801053D02*
X97568926Y-40804203D01*
X97589750Y-40809419D01*
X97609962Y-40816651D01*
X97629368Y-40825830D01*
X97647781Y-40836866D01*
X97665024Y-40849654D01*
X97680930Y-40864070D01*
X97695346Y-40879976D01*
X97708134Y-40897219D01*
X97719170Y-40915632D01*
X97728349Y-40935038D01*
X97735581Y-40955250D01*
X97740797Y-40976074D01*
X97743947Y-40997309D01*
X97745000Y-41018750D01*
X97745000Y-41531250D01*
X97743947Y-41552691D01*
X97740797Y-41573926D01*
X97735581Y-41594750D01*
X97728349Y-41614962D01*
X97719170Y-41634368D01*
X97708134Y-41652781D01*
X97695346Y-41670024D01*
X97680930Y-41685930D01*
X97665024Y-41700346D01*
X97647781Y-41713134D01*
X97629368Y-41724170D01*
X97609962Y-41733349D01*
X97589750Y-41740581D01*
X97568926Y-41745797D01*
X97547691Y-41748947D01*
X97526250Y-41750000D01*
X97088750Y-41750000D01*
X97067309Y-41748947D01*
X97046074Y-41745797D01*
X97025250Y-41740581D01*
X97005038Y-41733349D01*
X96985632Y-41724170D01*
X96967219Y-41713134D01*
X96949976Y-41700346D01*
X96934070Y-41685930D01*
X96919654Y-41670024D01*
X96906866Y-41652781D01*
X96895830Y-41634368D01*
X96886651Y-41614962D01*
X96879419Y-41594750D01*
X96874203Y-41573926D01*
X96871053Y-41552691D01*
X96870000Y-41531250D01*
X96870000Y-41018750D01*
X96871053Y-40997309D01*
X96874203Y-40976074D01*
X96879419Y-40955250D01*
X96886651Y-40935038D01*
X96895830Y-40915632D01*
X96906866Y-40897219D01*
X96919654Y-40879976D01*
X96934070Y-40864070D01*
X96949976Y-40849654D01*
X96967219Y-40836866D01*
X96985632Y-40825830D01*
X97005038Y-40816651D01*
X97025250Y-40809419D01*
X97046074Y-40804203D01*
X97067309Y-40801053D01*
X97088750Y-40800000D01*
X97526250Y-40800000D01*
X97547691Y-40801053D01*
X97547691Y-40801053D01*
G37*
D15*
X97307500Y-41275000D03*
D14*
G36*
X95972691Y-40801053D02*
X95993926Y-40804203D01*
X96014750Y-40809419D01*
X96034962Y-40816651D01*
X96054368Y-40825830D01*
X96072781Y-40836866D01*
X96090024Y-40849654D01*
X96105930Y-40864070D01*
X96120346Y-40879976D01*
X96133134Y-40897219D01*
X96144170Y-40915632D01*
X96153349Y-40935038D01*
X96160581Y-40955250D01*
X96165797Y-40976074D01*
X96168947Y-40997309D01*
X96170000Y-41018750D01*
X96170000Y-41531250D01*
X96168947Y-41552691D01*
X96165797Y-41573926D01*
X96160581Y-41594750D01*
X96153349Y-41614962D01*
X96144170Y-41634368D01*
X96133134Y-41652781D01*
X96120346Y-41670024D01*
X96105930Y-41685930D01*
X96090024Y-41700346D01*
X96072781Y-41713134D01*
X96054368Y-41724170D01*
X96034962Y-41733349D01*
X96014750Y-41740581D01*
X95993926Y-41745797D01*
X95972691Y-41748947D01*
X95951250Y-41750000D01*
X95513750Y-41750000D01*
X95492309Y-41748947D01*
X95471074Y-41745797D01*
X95450250Y-41740581D01*
X95430038Y-41733349D01*
X95410632Y-41724170D01*
X95392219Y-41713134D01*
X95374976Y-41700346D01*
X95359070Y-41685930D01*
X95344654Y-41670024D01*
X95331866Y-41652781D01*
X95320830Y-41634368D01*
X95311651Y-41614962D01*
X95304419Y-41594750D01*
X95299203Y-41573926D01*
X95296053Y-41552691D01*
X95295000Y-41531250D01*
X95295000Y-41018750D01*
X95296053Y-40997309D01*
X95299203Y-40976074D01*
X95304419Y-40955250D01*
X95311651Y-40935038D01*
X95320830Y-40915632D01*
X95331866Y-40897219D01*
X95344654Y-40879976D01*
X95359070Y-40864070D01*
X95374976Y-40849654D01*
X95392219Y-40836866D01*
X95410632Y-40825830D01*
X95430038Y-40816651D01*
X95450250Y-40809419D01*
X95471074Y-40804203D01*
X95492309Y-40801053D01*
X95513750Y-40800000D01*
X95951250Y-40800000D01*
X95972691Y-40801053D01*
X95972691Y-40801053D01*
G37*
D15*
X95732500Y-41275000D03*
G04 #@! TD*
D11*
G04 #@! TO.C,RN1*
X87735000Y-63805000D03*
D12*
X87735000Y-64605000D03*
D11*
X87735000Y-66205000D03*
D12*
X87735000Y-65405000D03*
D11*
X89535000Y-63805000D03*
D12*
X89535000Y-65405000D03*
X89535000Y-64605000D03*
D11*
X89535000Y-66205000D03*
G04 #@! TD*
D14*
G04 #@! TO.C,C3*
G36*
X87907691Y-44318553D02*
X87928926Y-44321703D01*
X87949750Y-44326919D01*
X87969962Y-44334151D01*
X87989368Y-44343330D01*
X88007781Y-44354366D01*
X88025024Y-44367154D01*
X88040930Y-44381570D01*
X88055346Y-44397476D01*
X88068134Y-44414719D01*
X88079170Y-44433132D01*
X88088349Y-44452538D01*
X88095581Y-44472750D01*
X88100797Y-44493574D01*
X88103947Y-44514809D01*
X88105000Y-44536250D01*
X88105000Y-44973750D01*
X88103947Y-44995191D01*
X88100797Y-45016426D01*
X88095581Y-45037250D01*
X88088349Y-45057462D01*
X88079170Y-45076868D01*
X88068134Y-45095281D01*
X88055346Y-45112524D01*
X88040930Y-45128430D01*
X88025024Y-45142846D01*
X88007781Y-45155634D01*
X87989368Y-45166670D01*
X87969962Y-45175849D01*
X87949750Y-45183081D01*
X87928926Y-45188297D01*
X87907691Y-45191447D01*
X87886250Y-45192500D01*
X87373750Y-45192500D01*
X87352309Y-45191447D01*
X87331074Y-45188297D01*
X87310250Y-45183081D01*
X87290038Y-45175849D01*
X87270632Y-45166670D01*
X87252219Y-45155634D01*
X87234976Y-45142846D01*
X87219070Y-45128430D01*
X87204654Y-45112524D01*
X87191866Y-45095281D01*
X87180830Y-45076868D01*
X87171651Y-45057462D01*
X87164419Y-45037250D01*
X87159203Y-45016426D01*
X87156053Y-44995191D01*
X87155000Y-44973750D01*
X87155000Y-44536250D01*
X87156053Y-44514809D01*
X87159203Y-44493574D01*
X87164419Y-44472750D01*
X87171651Y-44452538D01*
X87180830Y-44433132D01*
X87191866Y-44414719D01*
X87204654Y-44397476D01*
X87219070Y-44381570D01*
X87234976Y-44367154D01*
X87252219Y-44354366D01*
X87270632Y-44343330D01*
X87290038Y-44334151D01*
X87310250Y-44326919D01*
X87331074Y-44321703D01*
X87352309Y-44318553D01*
X87373750Y-44317500D01*
X87886250Y-44317500D01*
X87907691Y-44318553D01*
X87907691Y-44318553D01*
G37*
D15*
X87630000Y-44755000D03*
D14*
G36*
X87907691Y-42743553D02*
X87928926Y-42746703D01*
X87949750Y-42751919D01*
X87969962Y-42759151D01*
X87989368Y-42768330D01*
X88007781Y-42779366D01*
X88025024Y-42792154D01*
X88040930Y-42806570D01*
X88055346Y-42822476D01*
X88068134Y-42839719D01*
X88079170Y-42858132D01*
X88088349Y-42877538D01*
X88095581Y-42897750D01*
X88100797Y-42918574D01*
X88103947Y-42939809D01*
X88105000Y-42961250D01*
X88105000Y-43398750D01*
X88103947Y-43420191D01*
X88100797Y-43441426D01*
X88095581Y-43462250D01*
X88088349Y-43482462D01*
X88079170Y-43501868D01*
X88068134Y-43520281D01*
X88055346Y-43537524D01*
X88040930Y-43553430D01*
X88025024Y-43567846D01*
X88007781Y-43580634D01*
X87989368Y-43591670D01*
X87969962Y-43600849D01*
X87949750Y-43608081D01*
X87928926Y-43613297D01*
X87907691Y-43616447D01*
X87886250Y-43617500D01*
X87373750Y-43617500D01*
X87352309Y-43616447D01*
X87331074Y-43613297D01*
X87310250Y-43608081D01*
X87290038Y-43600849D01*
X87270632Y-43591670D01*
X87252219Y-43580634D01*
X87234976Y-43567846D01*
X87219070Y-43553430D01*
X87204654Y-43537524D01*
X87191866Y-43520281D01*
X87180830Y-43501868D01*
X87171651Y-43482462D01*
X87164419Y-43462250D01*
X87159203Y-43441426D01*
X87156053Y-43420191D01*
X87155000Y-43398750D01*
X87155000Y-42961250D01*
X87156053Y-42939809D01*
X87159203Y-42918574D01*
X87164419Y-42897750D01*
X87171651Y-42877538D01*
X87180830Y-42858132D01*
X87191866Y-42839719D01*
X87204654Y-42822476D01*
X87219070Y-42806570D01*
X87234976Y-42792154D01*
X87252219Y-42779366D01*
X87270632Y-42768330D01*
X87290038Y-42759151D01*
X87310250Y-42751919D01*
X87331074Y-42746703D01*
X87352309Y-42743553D01*
X87373750Y-42742500D01*
X87886250Y-42742500D01*
X87907691Y-42743553D01*
X87907691Y-42743553D01*
G37*
D15*
X87630000Y-43180000D03*
G04 #@! TD*
D14*
G04 #@! TO.C,R4*
G36*
X97432691Y-66721053D02*
X97453926Y-66724203D01*
X97474750Y-66729419D01*
X97494962Y-66736651D01*
X97514368Y-66745830D01*
X97532781Y-66756866D01*
X97550024Y-66769654D01*
X97565930Y-66784070D01*
X97580346Y-66799976D01*
X97593134Y-66817219D01*
X97604170Y-66835632D01*
X97613349Y-66855038D01*
X97620581Y-66875250D01*
X97625797Y-66896074D01*
X97628947Y-66917309D01*
X97630000Y-66938750D01*
X97630000Y-67376250D01*
X97628947Y-67397691D01*
X97625797Y-67418926D01*
X97620581Y-67439750D01*
X97613349Y-67459962D01*
X97604170Y-67479368D01*
X97593134Y-67497781D01*
X97580346Y-67515024D01*
X97565930Y-67530930D01*
X97550024Y-67545346D01*
X97532781Y-67558134D01*
X97514368Y-67569170D01*
X97494962Y-67578349D01*
X97474750Y-67585581D01*
X97453926Y-67590797D01*
X97432691Y-67593947D01*
X97411250Y-67595000D01*
X96898750Y-67595000D01*
X96877309Y-67593947D01*
X96856074Y-67590797D01*
X96835250Y-67585581D01*
X96815038Y-67578349D01*
X96795632Y-67569170D01*
X96777219Y-67558134D01*
X96759976Y-67545346D01*
X96744070Y-67530930D01*
X96729654Y-67515024D01*
X96716866Y-67497781D01*
X96705830Y-67479368D01*
X96696651Y-67459962D01*
X96689419Y-67439750D01*
X96684203Y-67418926D01*
X96681053Y-67397691D01*
X96680000Y-67376250D01*
X96680000Y-66938750D01*
X96681053Y-66917309D01*
X96684203Y-66896074D01*
X96689419Y-66875250D01*
X96696651Y-66855038D01*
X96705830Y-66835632D01*
X96716866Y-66817219D01*
X96729654Y-66799976D01*
X96744070Y-66784070D01*
X96759976Y-66769654D01*
X96777219Y-66756866D01*
X96795632Y-66745830D01*
X96815038Y-66736651D01*
X96835250Y-66729419D01*
X96856074Y-66724203D01*
X96877309Y-66721053D01*
X96898750Y-66720000D01*
X97411250Y-66720000D01*
X97432691Y-66721053D01*
X97432691Y-66721053D01*
G37*
D15*
X97155000Y-67157500D03*
D14*
G36*
X97432691Y-68296053D02*
X97453926Y-68299203D01*
X97474750Y-68304419D01*
X97494962Y-68311651D01*
X97514368Y-68320830D01*
X97532781Y-68331866D01*
X97550024Y-68344654D01*
X97565930Y-68359070D01*
X97580346Y-68374976D01*
X97593134Y-68392219D01*
X97604170Y-68410632D01*
X97613349Y-68430038D01*
X97620581Y-68450250D01*
X97625797Y-68471074D01*
X97628947Y-68492309D01*
X97630000Y-68513750D01*
X97630000Y-68951250D01*
X97628947Y-68972691D01*
X97625797Y-68993926D01*
X97620581Y-69014750D01*
X97613349Y-69034962D01*
X97604170Y-69054368D01*
X97593134Y-69072781D01*
X97580346Y-69090024D01*
X97565930Y-69105930D01*
X97550024Y-69120346D01*
X97532781Y-69133134D01*
X97514368Y-69144170D01*
X97494962Y-69153349D01*
X97474750Y-69160581D01*
X97453926Y-69165797D01*
X97432691Y-69168947D01*
X97411250Y-69170000D01*
X96898750Y-69170000D01*
X96877309Y-69168947D01*
X96856074Y-69165797D01*
X96835250Y-69160581D01*
X96815038Y-69153349D01*
X96795632Y-69144170D01*
X96777219Y-69133134D01*
X96759976Y-69120346D01*
X96744070Y-69105930D01*
X96729654Y-69090024D01*
X96716866Y-69072781D01*
X96705830Y-69054368D01*
X96696651Y-69034962D01*
X96689419Y-69014750D01*
X96684203Y-68993926D01*
X96681053Y-68972691D01*
X96680000Y-68951250D01*
X96680000Y-68513750D01*
X96681053Y-68492309D01*
X96684203Y-68471074D01*
X96689419Y-68450250D01*
X96696651Y-68430038D01*
X96705830Y-68410632D01*
X96716866Y-68392219D01*
X96729654Y-68374976D01*
X96744070Y-68359070D01*
X96759976Y-68344654D01*
X96777219Y-68331866D01*
X96795632Y-68320830D01*
X96815038Y-68311651D01*
X96835250Y-68304419D01*
X96856074Y-68299203D01*
X96877309Y-68296053D01*
X96898750Y-68295000D01*
X97411250Y-68295000D01*
X97432691Y-68296053D01*
X97432691Y-68296053D01*
G37*
D15*
X97155000Y-68732500D03*
G04 #@! TD*
D10*
G04 #@! TO.C,Q2*
X90900000Y-57465000D03*
X90900000Y-55565000D03*
X88900000Y-56515000D03*
G04 #@! TD*
D14*
G04 #@! TO.C,C1*
G36*
X48652691Y-47151053D02*
X48673926Y-47154203D01*
X48694750Y-47159419D01*
X48714962Y-47166651D01*
X48734368Y-47175830D01*
X48752781Y-47186866D01*
X48770024Y-47199654D01*
X48785930Y-47214070D01*
X48800346Y-47229976D01*
X48813134Y-47247219D01*
X48824170Y-47265632D01*
X48833349Y-47285038D01*
X48840581Y-47305250D01*
X48845797Y-47326074D01*
X48848947Y-47347309D01*
X48850000Y-47368750D01*
X48850000Y-47881250D01*
X48848947Y-47902691D01*
X48845797Y-47923926D01*
X48840581Y-47944750D01*
X48833349Y-47964962D01*
X48824170Y-47984368D01*
X48813134Y-48002781D01*
X48800346Y-48020024D01*
X48785930Y-48035930D01*
X48770024Y-48050346D01*
X48752781Y-48063134D01*
X48734368Y-48074170D01*
X48714962Y-48083349D01*
X48694750Y-48090581D01*
X48673926Y-48095797D01*
X48652691Y-48098947D01*
X48631250Y-48100000D01*
X48193750Y-48100000D01*
X48172309Y-48098947D01*
X48151074Y-48095797D01*
X48130250Y-48090581D01*
X48110038Y-48083349D01*
X48090632Y-48074170D01*
X48072219Y-48063134D01*
X48054976Y-48050346D01*
X48039070Y-48035930D01*
X48024654Y-48020024D01*
X48011866Y-48002781D01*
X48000830Y-47984368D01*
X47991651Y-47964962D01*
X47984419Y-47944750D01*
X47979203Y-47923926D01*
X47976053Y-47902691D01*
X47975000Y-47881250D01*
X47975000Y-47368750D01*
X47976053Y-47347309D01*
X47979203Y-47326074D01*
X47984419Y-47305250D01*
X47991651Y-47285038D01*
X48000830Y-47265632D01*
X48011866Y-47247219D01*
X48024654Y-47229976D01*
X48039070Y-47214070D01*
X48054976Y-47199654D01*
X48072219Y-47186866D01*
X48090632Y-47175830D01*
X48110038Y-47166651D01*
X48130250Y-47159419D01*
X48151074Y-47154203D01*
X48172309Y-47151053D01*
X48193750Y-47150000D01*
X48631250Y-47150000D01*
X48652691Y-47151053D01*
X48652691Y-47151053D01*
G37*
D15*
X48412500Y-47625000D03*
D14*
G36*
X47077691Y-47151053D02*
X47098926Y-47154203D01*
X47119750Y-47159419D01*
X47139962Y-47166651D01*
X47159368Y-47175830D01*
X47177781Y-47186866D01*
X47195024Y-47199654D01*
X47210930Y-47214070D01*
X47225346Y-47229976D01*
X47238134Y-47247219D01*
X47249170Y-47265632D01*
X47258349Y-47285038D01*
X47265581Y-47305250D01*
X47270797Y-47326074D01*
X47273947Y-47347309D01*
X47275000Y-47368750D01*
X47275000Y-47881250D01*
X47273947Y-47902691D01*
X47270797Y-47923926D01*
X47265581Y-47944750D01*
X47258349Y-47964962D01*
X47249170Y-47984368D01*
X47238134Y-48002781D01*
X47225346Y-48020024D01*
X47210930Y-48035930D01*
X47195024Y-48050346D01*
X47177781Y-48063134D01*
X47159368Y-48074170D01*
X47139962Y-48083349D01*
X47119750Y-48090581D01*
X47098926Y-48095797D01*
X47077691Y-48098947D01*
X47056250Y-48100000D01*
X46618750Y-48100000D01*
X46597309Y-48098947D01*
X46576074Y-48095797D01*
X46555250Y-48090581D01*
X46535038Y-48083349D01*
X46515632Y-48074170D01*
X46497219Y-48063134D01*
X46479976Y-48050346D01*
X46464070Y-48035930D01*
X46449654Y-48020024D01*
X46436866Y-48002781D01*
X46425830Y-47984368D01*
X46416651Y-47964962D01*
X46409419Y-47944750D01*
X46404203Y-47923926D01*
X46401053Y-47902691D01*
X46400000Y-47881250D01*
X46400000Y-47368750D01*
X46401053Y-47347309D01*
X46404203Y-47326074D01*
X46409419Y-47305250D01*
X46416651Y-47285038D01*
X46425830Y-47265632D01*
X46436866Y-47247219D01*
X46449654Y-47229976D01*
X46464070Y-47214070D01*
X46479976Y-47199654D01*
X46497219Y-47186866D01*
X46515632Y-47175830D01*
X46535038Y-47166651D01*
X46555250Y-47159419D01*
X46576074Y-47154203D01*
X46597309Y-47151053D01*
X46618750Y-47150000D01*
X47056250Y-47150000D01*
X47077691Y-47151053D01*
X47077691Y-47151053D01*
G37*
D15*
X46837500Y-47625000D03*
G04 #@! TD*
D14*
G04 #@! TO.C,C2*
G36*
X47077691Y-40801053D02*
X47098926Y-40804203D01*
X47119750Y-40809419D01*
X47139962Y-40816651D01*
X47159368Y-40825830D01*
X47177781Y-40836866D01*
X47195024Y-40849654D01*
X47210930Y-40864070D01*
X47225346Y-40879976D01*
X47238134Y-40897219D01*
X47249170Y-40915632D01*
X47258349Y-40935038D01*
X47265581Y-40955250D01*
X47270797Y-40976074D01*
X47273947Y-40997309D01*
X47275000Y-41018750D01*
X47275000Y-41531250D01*
X47273947Y-41552691D01*
X47270797Y-41573926D01*
X47265581Y-41594750D01*
X47258349Y-41614962D01*
X47249170Y-41634368D01*
X47238134Y-41652781D01*
X47225346Y-41670024D01*
X47210930Y-41685930D01*
X47195024Y-41700346D01*
X47177781Y-41713134D01*
X47159368Y-41724170D01*
X47139962Y-41733349D01*
X47119750Y-41740581D01*
X47098926Y-41745797D01*
X47077691Y-41748947D01*
X47056250Y-41750000D01*
X46618750Y-41750000D01*
X46597309Y-41748947D01*
X46576074Y-41745797D01*
X46555250Y-41740581D01*
X46535038Y-41733349D01*
X46515632Y-41724170D01*
X46497219Y-41713134D01*
X46479976Y-41700346D01*
X46464070Y-41685930D01*
X46449654Y-41670024D01*
X46436866Y-41652781D01*
X46425830Y-41634368D01*
X46416651Y-41614962D01*
X46409419Y-41594750D01*
X46404203Y-41573926D01*
X46401053Y-41552691D01*
X46400000Y-41531250D01*
X46400000Y-41018750D01*
X46401053Y-40997309D01*
X46404203Y-40976074D01*
X46409419Y-40955250D01*
X46416651Y-40935038D01*
X46425830Y-40915632D01*
X46436866Y-40897219D01*
X46449654Y-40879976D01*
X46464070Y-40864070D01*
X46479976Y-40849654D01*
X46497219Y-40836866D01*
X46515632Y-40825830D01*
X46535038Y-40816651D01*
X46555250Y-40809419D01*
X46576074Y-40804203D01*
X46597309Y-40801053D01*
X46618750Y-40800000D01*
X47056250Y-40800000D01*
X47077691Y-40801053D01*
X47077691Y-40801053D01*
G37*
D15*
X46837500Y-41275000D03*
D14*
G36*
X48652691Y-40801053D02*
X48673926Y-40804203D01*
X48694750Y-40809419D01*
X48714962Y-40816651D01*
X48734368Y-40825830D01*
X48752781Y-40836866D01*
X48770024Y-40849654D01*
X48785930Y-40864070D01*
X48800346Y-40879976D01*
X48813134Y-40897219D01*
X48824170Y-40915632D01*
X48833349Y-40935038D01*
X48840581Y-40955250D01*
X48845797Y-40976074D01*
X48848947Y-40997309D01*
X48850000Y-41018750D01*
X48850000Y-41531250D01*
X48848947Y-41552691D01*
X48845797Y-41573926D01*
X48840581Y-41594750D01*
X48833349Y-41614962D01*
X48824170Y-41634368D01*
X48813134Y-41652781D01*
X48800346Y-41670024D01*
X48785930Y-41685930D01*
X48770024Y-41700346D01*
X48752781Y-41713134D01*
X48734368Y-41724170D01*
X48714962Y-41733349D01*
X48694750Y-41740581D01*
X48673926Y-41745797D01*
X48652691Y-41748947D01*
X48631250Y-41750000D01*
X48193750Y-41750000D01*
X48172309Y-41748947D01*
X48151074Y-41745797D01*
X48130250Y-41740581D01*
X48110038Y-41733349D01*
X48090632Y-41724170D01*
X48072219Y-41713134D01*
X48054976Y-41700346D01*
X48039070Y-41685930D01*
X48024654Y-41670024D01*
X48011866Y-41652781D01*
X48000830Y-41634368D01*
X47991651Y-41614962D01*
X47984419Y-41594750D01*
X47979203Y-41573926D01*
X47976053Y-41552691D01*
X47975000Y-41531250D01*
X47975000Y-41018750D01*
X47976053Y-40997309D01*
X47979203Y-40976074D01*
X47984419Y-40955250D01*
X47991651Y-40935038D01*
X48000830Y-40915632D01*
X48011866Y-40897219D01*
X48024654Y-40879976D01*
X48039070Y-40864070D01*
X48054976Y-40849654D01*
X48072219Y-40836866D01*
X48090632Y-40825830D01*
X48110038Y-40816651D01*
X48130250Y-40809419D01*
X48151074Y-40804203D01*
X48172309Y-40801053D01*
X48193750Y-40800000D01*
X48631250Y-40800000D01*
X48652691Y-40801053D01*
X48652691Y-40801053D01*
G37*
D15*
X48412500Y-41275000D03*
G04 #@! TD*
D14*
G04 #@! TO.C,C3*
G36*
X39012691Y-42743553D02*
X39033926Y-42746703D01*
X39054750Y-42751919D01*
X39074962Y-42759151D01*
X39094368Y-42768330D01*
X39112781Y-42779366D01*
X39130024Y-42792154D01*
X39145930Y-42806570D01*
X39160346Y-42822476D01*
X39173134Y-42839719D01*
X39184170Y-42858132D01*
X39193349Y-42877538D01*
X39200581Y-42897750D01*
X39205797Y-42918574D01*
X39208947Y-42939809D01*
X39210000Y-42961250D01*
X39210000Y-43398750D01*
X39208947Y-43420191D01*
X39205797Y-43441426D01*
X39200581Y-43462250D01*
X39193349Y-43482462D01*
X39184170Y-43501868D01*
X39173134Y-43520281D01*
X39160346Y-43537524D01*
X39145930Y-43553430D01*
X39130024Y-43567846D01*
X39112781Y-43580634D01*
X39094368Y-43591670D01*
X39074962Y-43600849D01*
X39054750Y-43608081D01*
X39033926Y-43613297D01*
X39012691Y-43616447D01*
X38991250Y-43617500D01*
X38478750Y-43617500D01*
X38457309Y-43616447D01*
X38436074Y-43613297D01*
X38415250Y-43608081D01*
X38395038Y-43600849D01*
X38375632Y-43591670D01*
X38357219Y-43580634D01*
X38339976Y-43567846D01*
X38324070Y-43553430D01*
X38309654Y-43537524D01*
X38296866Y-43520281D01*
X38285830Y-43501868D01*
X38276651Y-43482462D01*
X38269419Y-43462250D01*
X38264203Y-43441426D01*
X38261053Y-43420191D01*
X38260000Y-43398750D01*
X38260000Y-42961250D01*
X38261053Y-42939809D01*
X38264203Y-42918574D01*
X38269419Y-42897750D01*
X38276651Y-42877538D01*
X38285830Y-42858132D01*
X38296866Y-42839719D01*
X38309654Y-42822476D01*
X38324070Y-42806570D01*
X38339976Y-42792154D01*
X38357219Y-42779366D01*
X38375632Y-42768330D01*
X38395038Y-42759151D01*
X38415250Y-42751919D01*
X38436074Y-42746703D01*
X38457309Y-42743553D01*
X38478750Y-42742500D01*
X38991250Y-42742500D01*
X39012691Y-42743553D01*
X39012691Y-42743553D01*
G37*
D15*
X38735000Y-43180000D03*
D14*
G36*
X39012691Y-44318553D02*
X39033926Y-44321703D01*
X39054750Y-44326919D01*
X39074962Y-44334151D01*
X39094368Y-44343330D01*
X39112781Y-44354366D01*
X39130024Y-44367154D01*
X39145930Y-44381570D01*
X39160346Y-44397476D01*
X39173134Y-44414719D01*
X39184170Y-44433132D01*
X39193349Y-44452538D01*
X39200581Y-44472750D01*
X39205797Y-44493574D01*
X39208947Y-44514809D01*
X39210000Y-44536250D01*
X39210000Y-44973750D01*
X39208947Y-44995191D01*
X39205797Y-45016426D01*
X39200581Y-45037250D01*
X39193349Y-45057462D01*
X39184170Y-45076868D01*
X39173134Y-45095281D01*
X39160346Y-45112524D01*
X39145930Y-45128430D01*
X39130024Y-45142846D01*
X39112781Y-45155634D01*
X39094368Y-45166670D01*
X39074962Y-45175849D01*
X39054750Y-45183081D01*
X39033926Y-45188297D01*
X39012691Y-45191447D01*
X38991250Y-45192500D01*
X38478750Y-45192500D01*
X38457309Y-45191447D01*
X38436074Y-45188297D01*
X38415250Y-45183081D01*
X38395038Y-45175849D01*
X38375632Y-45166670D01*
X38357219Y-45155634D01*
X38339976Y-45142846D01*
X38324070Y-45128430D01*
X38309654Y-45112524D01*
X38296866Y-45095281D01*
X38285830Y-45076868D01*
X38276651Y-45057462D01*
X38269419Y-45037250D01*
X38264203Y-45016426D01*
X38261053Y-44995191D01*
X38260000Y-44973750D01*
X38260000Y-44536250D01*
X38261053Y-44514809D01*
X38264203Y-44493574D01*
X38269419Y-44472750D01*
X38276651Y-44452538D01*
X38285830Y-44433132D01*
X38296866Y-44414719D01*
X38309654Y-44397476D01*
X38324070Y-44381570D01*
X38339976Y-44367154D01*
X38357219Y-44354366D01*
X38375632Y-44343330D01*
X38395038Y-44334151D01*
X38415250Y-44326919D01*
X38436074Y-44321703D01*
X38457309Y-44318553D01*
X38478750Y-44317500D01*
X38991250Y-44317500D01*
X39012691Y-44318553D01*
X39012691Y-44318553D01*
G37*
D15*
X38735000Y-44755000D03*
G04 #@! TD*
D10*
G04 #@! TO.C,Q1*
X42005000Y-51750000D03*
X42005000Y-49850000D03*
X40005000Y-50800000D03*
G04 #@! TD*
G04 #@! TO.C,Q2*
X40005000Y-56515000D03*
X42005000Y-55565000D03*
X42005000Y-57465000D03*
G04 #@! TD*
D11*
G04 #@! TO.C,RN2*
X47255000Y-54540000D03*
D12*
X47255000Y-53740000D03*
D11*
X47255000Y-52140000D03*
D12*
X47255000Y-52940000D03*
D11*
X45455000Y-54540000D03*
D12*
X45455000Y-52940000D03*
X45455000Y-53740000D03*
D11*
X45455000Y-52140000D03*
G04 #@! TD*
D13*
G04 #@! TO.C,U2*
X42545000Y-43180000D03*
X40945000Y-45130000D03*
X40945000Y-44480000D03*
X40945000Y-43830000D03*
X42545000Y-45130000D03*
X42545000Y-44480000D03*
X42545000Y-43830000D03*
X40945000Y-43180000D03*
G04 #@! TD*
D10*
G04 #@! TO.C,U1*
X46625000Y-43500000D03*
X46625000Y-45400000D03*
X48625000Y-44450000D03*
G04 #@! TD*
D11*
G04 #@! TO.C,RN1*
X40640000Y-66205000D03*
D12*
X40640000Y-64605000D03*
X40640000Y-65405000D03*
D11*
X40640000Y-63805000D03*
D12*
X38840000Y-65405000D03*
D11*
X38840000Y-66205000D03*
D12*
X38840000Y-64605000D03*
D11*
X38840000Y-63805000D03*
G04 #@! TD*
D14*
G04 #@! TO.C,R4*
G36*
X48537691Y-68296053D02*
X48558926Y-68299203D01*
X48579750Y-68304419D01*
X48599962Y-68311651D01*
X48619368Y-68320830D01*
X48637781Y-68331866D01*
X48655024Y-68344654D01*
X48670930Y-68359070D01*
X48685346Y-68374976D01*
X48698134Y-68392219D01*
X48709170Y-68410632D01*
X48718349Y-68430038D01*
X48725581Y-68450250D01*
X48730797Y-68471074D01*
X48733947Y-68492309D01*
X48735000Y-68513750D01*
X48735000Y-68951250D01*
X48733947Y-68972691D01*
X48730797Y-68993926D01*
X48725581Y-69014750D01*
X48718349Y-69034962D01*
X48709170Y-69054368D01*
X48698134Y-69072781D01*
X48685346Y-69090024D01*
X48670930Y-69105930D01*
X48655024Y-69120346D01*
X48637781Y-69133134D01*
X48619368Y-69144170D01*
X48599962Y-69153349D01*
X48579750Y-69160581D01*
X48558926Y-69165797D01*
X48537691Y-69168947D01*
X48516250Y-69170000D01*
X48003750Y-69170000D01*
X47982309Y-69168947D01*
X47961074Y-69165797D01*
X47940250Y-69160581D01*
X47920038Y-69153349D01*
X47900632Y-69144170D01*
X47882219Y-69133134D01*
X47864976Y-69120346D01*
X47849070Y-69105930D01*
X47834654Y-69090024D01*
X47821866Y-69072781D01*
X47810830Y-69054368D01*
X47801651Y-69034962D01*
X47794419Y-69014750D01*
X47789203Y-68993926D01*
X47786053Y-68972691D01*
X47785000Y-68951250D01*
X47785000Y-68513750D01*
X47786053Y-68492309D01*
X47789203Y-68471074D01*
X47794419Y-68450250D01*
X47801651Y-68430038D01*
X47810830Y-68410632D01*
X47821866Y-68392219D01*
X47834654Y-68374976D01*
X47849070Y-68359070D01*
X47864976Y-68344654D01*
X47882219Y-68331866D01*
X47900632Y-68320830D01*
X47920038Y-68311651D01*
X47940250Y-68304419D01*
X47961074Y-68299203D01*
X47982309Y-68296053D01*
X48003750Y-68295000D01*
X48516250Y-68295000D01*
X48537691Y-68296053D01*
X48537691Y-68296053D01*
G37*
D15*
X48260000Y-68732500D03*
D14*
G36*
X48537691Y-66721053D02*
X48558926Y-66724203D01*
X48579750Y-66729419D01*
X48599962Y-66736651D01*
X48619368Y-66745830D01*
X48637781Y-66756866D01*
X48655024Y-66769654D01*
X48670930Y-66784070D01*
X48685346Y-66799976D01*
X48698134Y-66817219D01*
X48709170Y-66835632D01*
X48718349Y-66855038D01*
X48725581Y-66875250D01*
X48730797Y-66896074D01*
X48733947Y-66917309D01*
X48735000Y-66938750D01*
X48735000Y-67376250D01*
X48733947Y-67397691D01*
X48730797Y-67418926D01*
X48725581Y-67439750D01*
X48718349Y-67459962D01*
X48709170Y-67479368D01*
X48698134Y-67497781D01*
X48685346Y-67515024D01*
X48670930Y-67530930D01*
X48655024Y-67545346D01*
X48637781Y-67558134D01*
X48619368Y-67569170D01*
X48599962Y-67578349D01*
X48579750Y-67585581D01*
X48558926Y-67590797D01*
X48537691Y-67593947D01*
X48516250Y-67595000D01*
X48003750Y-67595000D01*
X47982309Y-67593947D01*
X47961074Y-67590797D01*
X47940250Y-67585581D01*
X47920038Y-67578349D01*
X47900632Y-67569170D01*
X47882219Y-67558134D01*
X47864976Y-67545346D01*
X47849070Y-67530930D01*
X47834654Y-67515024D01*
X47821866Y-67497781D01*
X47810830Y-67479368D01*
X47801651Y-67459962D01*
X47794419Y-67439750D01*
X47789203Y-67418926D01*
X47786053Y-67397691D01*
X47785000Y-67376250D01*
X47785000Y-66938750D01*
X47786053Y-66917309D01*
X47789203Y-66896074D01*
X47794419Y-66875250D01*
X47801651Y-66855038D01*
X47810830Y-66835632D01*
X47821866Y-66817219D01*
X47834654Y-66799976D01*
X47849070Y-66784070D01*
X47864976Y-66769654D01*
X47882219Y-66756866D01*
X47900632Y-66745830D01*
X47920038Y-66736651D01*
X47940250Y-66729419D01*
X47961074Y-66724203D01*
X47982309Y-66721053D01*
X48003750Y-66720000D01*
X48516250Y-66720000D01*
X48537691Y-66721053D01*
X48537691Y-66721053D01*
G37*
D15*
X48260000Y-67157500D03*
G04 #@! TD*
M02*
